<svg width="460" height="35" viewBox="0 0 460 35" fill="none" xmlns="http://www.w3.org/2000/svg">
<g clip-path="url(#clip0_1_213)">
<path d="M33.5417 4.37502C32.1451 5.36009 30.5989 6.11351 28.9625 6.60627C28.0842 5.59639 26.9169 4.88061 25.6186 4.55574C24.3202 4.23087 22.9534 4.31259 21.703 4.78984C20.4526 5.26709 19.379 6.11685 18.6273 7.22419C17.8755 8.33152 17.4821 9.64301 17.5 10.9813V12.4396C14.9372 12.5061 12.3977 11.9377 10.1077 10.785C7.81775 9.63242 5.84837 7.93136 4.37499 5.83335C4.37499 5.83335 -1.45834 18.9583 11.6667 24.7917C8.66326 26.8304 5.08543 27.8526 1.45833 27.7083C14.5833 35 30.625 27.7083 30.625 10.9375C30.6237 10.5313 30.5846 10.1261 30.5083 9.7271C31.9967 8.25928 33.047 6.40606 33.5417 4.37502V4.37502Z" stroke="#6B7280" stroke-width="3" stroke-linecap="round" stroke-linejoin="round"/>
</g>
<path d="M102.5 32.0834C110.554 32.0834 117.083 25.5542 117.083 17.5001C117.083 9.44593 110.554 2.91675 102.5 2.91675C94.4459 2.91675 87.9167 9.44593 87.9167 17.5001C87.9167 25.5542 94.4459 32.0834 102.5 32.0834Z" stroke="#6B7280" stroke-width="3" stroke-linecap="round" stroke-linejoin="round"/>
<path d="M97.4833 4.0105C103.856 12.8042 106.263 17.748 109.194 29.8522M112.898 7.423C107.473 13.7667 99.8604 15.6772 88.2812 15.9542M116.719 18.7251C111.615 17.3688 107.05 17.5292 103.681 18.7251C99.9188 20.0667 96.375 22.8959 92.8313 27.9417" stroke="#6B7280" stroke-width="3" stroke-linecap="round" stroke-linejoin="round"/>
<path d="M196.25 2.91675H191.875C189.941 2.91675 188.086 3.68497 186.719 5.05243C185.352 6.41988 184.583 8.27454 184.583 10.2084V14.5834H180.208V20.4167H184.583V32.0834H190.417V20.4167H194.792L196.25 14.5834H190.417V10.2084C190.417 9.82164 190.57 9.45071 190.844 9.17722C191.117 8.90373 191.488 8.75008 191.875 8.75008H196.25V2.91675Z" stroke="#6B7280" stroke-width="3" stroke-linecap="round" stroke-linejoin="round"/>
<path d="M272.5 2.91675L287.083 12.3959V22.6042L272.5 32.0834L257.917 22.6042V12.3959L272.5 2.91675Z" stroke="#6B7280" stroke-width="3" stroke-linecap="round" stroke-linejoin="round"/>
<path d="M272.5 32.0834V22.6042" stroke="#6B7280" stroke-width="3" stroke-linecap="round" stroke-linejoin="round"/>
<path d="M287.083 12.3958L272.5 22.6041L257.917 12.3958" stroke="#6B7280" stroke-width="3" stroke-linecap="round" stroke-linejoin="round"/>
<path d="M257.917 22.6041L272.5 12.3958L287.083 22.6041" stroke="#6B7280" stroke-width="3" stroke-linecap="round" stroke-linejoin="round"/>
<path d="M272.5 2.91675V12.3959" stroke="#6B7280" stroke-width="3" stroke-linecap="round" stroke-linejoin="round"/>
<path d="M357.5 23.3334C360.722 23.3334 363.333 20.7217 363.333 17.5001C363.333 14.2784 360.722 11.6667 357.5 11.6667C354.278 11.6667 351.667 14.2784 351.667 17.5001C351.667 20.7217 354.278 23.3334 357.5 23.3334Z" stroke="#6B7280" stroke-width="3" stroke-linecap="round" stroke-linejoin="round"/>
<path d="M363.333 11.6666V18.9582C363.333 20.1186 363.794 21.2314 364.615 22.0518C365.435 22.8723 366.548 23.3332 367.708 23.3332C368.869 23.3332 369.981 22.8723 370.802 22.0518C371.622 21.2314 372.083 20.1186 372.083 18.9582V17.4999C372.083 14.2085 370.969 11.0139 368.924 8.43568C366.878 5.85743 364.02 4.04711 360.814 3.29909C357.609 2.55107 354.245 2.90934 351.269 4.31565C348.293 5.72196 345.881 8.09359 344.423 11.0449C342.966 13.9962 342.551 17.3537 343.244 20.5713C343.937 23.789 345.698 26.6775 348.24 28.7674C350.783 30.8572 353.958 32.0254 357.249 32.082C360.54 32.1386 363.753 31.0803 366.367 29.0791" stroke="#6B7280" stroke-width="3" stroke-linecap="round" stroke-linejoin="round"/>
<path d="M449.792 2.91675H435.208C431.181 2.91675 427.917 6.18134 427.917 10.2084V24.7917C427.917 28.8188 431.181 32.0834 435.208 32.0834H449.792C453.819 32.0834 457.083 28.8188 457.083 24.7917V10.2084C457.083 6.18134 453.819 2.91675 449.792 2.91675Z" stroke="#6B7280" stroke-width="3" stroke-linecap="round" stroke-linejoin="round"/>
<path d="M448.333 16.5812C448.513 17.7949 448.306 19.0344 447.741 20.1235C447.176 21.2126 446.282 22.0958 445.186 22.6474C444.09 23.199 442.848 23.391 441.636 23.1961C440.425 23.0012 439.306 22.4292 438.438 21.5616C437.571 20.6941 436.999 19.575 436.804 18.3636C436.609 17.1522 436.801 15.9102 437.353 14.8142C437.904 13.7183 438.787 12.8242 439.876 12.2591C440.966 11.694 442.205 11.4866 443.419 11.6666C444.657 11.8502 445.803 12.4271 446.688 13.3121C447.573 14.197 448.15 15.3432 448.333 16.5812Z" stroke="#6B7280" stroke-width="3" stroke-linecap="round" stroke-linejoin="round"/>
<path d="M450.521 9.47925H450.535" stroke="#6B7280" stroke-width="3" stroke-linecap="round" stroke-linejoin="round"/>
<defs>
<clipPath id="clip0_1_213">
<rect width="35" height="35" fill="white"/>
</clipPath>
</defs>
</svg>
