<svg width="1172" height="99" viewBox="0 0 1172 99" fill="none" xmlns="http://www.w3.org/2000/svg">
<path d="M0.965909 8.01705H5.53977V21H7.30114V8.01705H11.875V6.45455H0.965909V8.01705ZM13.2333 21H14.9094V14.0966C14.9094 12.6193 16.0742 11.5398 17.6651 11.5398C18.1126 11.5398 18.5742 11.625 18.6879 11.6534V9.94886C18.4961 9.93466 18.0558 9.92045 17.8072 9.92045C16.5004 9.92045 15.364 10.6591 14.9663 11.7386H14.8526V10.0909H13.2333V21ZM27.5497 16.5398C27.5497 18.5852 25.9872 19.5227 24.7372 19.5227C23.3452 19.5227 22.3509 18.5 22.3509 16.9091V10.0909H20.6747V17.0227C20.6747 19.8068 22.152 21.142 24.1974 21.142C25.8452 21.142 26.9247 20.2614 27.4361 19.1534H27.5497V21H29.2259V10.0909H27.5497V16.5398ZM40.0231 12.5341C39.4975 10.9858 38.3185 9.94886 36.1594 9.94886C33.8583 9.94886 32.1538 11.2557 32.1538 13.1023C32.1538 14.608 33.0487 15.6165 35.0515 16.0852L36.8697 16.5114C37.9705 16.767 38.489 17.2926 38.489 18.0455C38.489 18.983 37.4947 19.75 35.9322 19.75C34.5614 19.75 33.7021 19.1605 33.4038 17.9886L31.8129 18.3864C32.2035 20.2401 33.7305 21.2273 35.9606 21.2273C38.4961 21.2273 40.2219 19.8423 40.2219 17.9602C40.2219 16.4403 39.2702 15.4815 37.3242 15.0057L35.7049 14.608C34.4123 14.2884 33.8299 13.8551 33.8299 13.017C33.8299 12.0795 34.8242 11.3977 36.1594 11.3977C37.6225 11.3977 38.2262 12.2074 38.5174 12.9602L40.0231 12.5341ZM47.4893 10.0909H45.1598V7.47727H43.4837V10.0909H41.8359V11.5114H43.4837V18.3295C43.4837 20.233 45.0178 21.142 46.4382 21.142C47.0632 21.142 47.4609 21.0284 47.6882 20.9432L47.3473 19.4375C47.2053 19.4659 46.978 19.5227 46.6087 19.5227C45.87 19.5227 45.1598 19.2955 45.1598 17.875V11.5114H47.4893V10.0909ZM54.4673 21.2273C56.6832 21.2273 58.3026 20.1193 58.8139 18.4716L57.1946 18.017C56.7685 19.1534 55.7812 19.7216 54.4673 19.7216C52.5 19.7216 51.1435 18.4503 51.0653 16.1136H58.9844V15.4034C58.9844 11.3409 56.5696 9.94886 54.2969 9.94886C51.3423 9.94886 49.3821 12.2784 49.3821 15.6307C49.3821 18.983 51.3139 21.2273 54.4673 21.2273ZM51.0653 14.6648C51.179 12.9673 52.3793 11.4545 54.2969 11.4545C56.1151 11.4545 57.2798 12.8182 57.2798 14.6648H51.0653ZM65.6534 21.2273C67.7557 21.2273 68.4659 19.9205 68.8352 19.3239H69.0341V21H70.6534V6.45455H68.9773V11.8239H68.8352C68.4659 11.2557 67.8125 9.94886 65.6818 9.94886C62.9261 9.94886 61.0227 12.1364 61.0227 15.5739C61.0227 19.0398 62.9261 21.2273 65.6534 21.2273ZM65.8807 19.7216C63.7784 19.7216 62.6989 17.875 62.6989 15.5455C62.6989 13.2443 63.75 11.4545 65.8807 11.4545C67.9261 11.4545 69.0057 13.1023 69.0057 15.5455C69.0057 18.017 67.8977 19.7216 65.8807 19.7216ZM79.8082 21H81.4276V19.3239H81.6264C81.9957 19.9205 82.706 21.2273 84.8082 21.2273C87.5355 21.2273 89.4389 19.0398 89.4389 15.5739C89.4389 12.1364 87.5355 9.94886 84.7798 9.94886C82.6491 9.94886 81.9957 11.2557 81.6264 11.8239H81.4844V6.45455H79.8082V21ZM81.456 15.5455C81.456 13.1023 82.5355 11.4545 84.581 11.4545C86.7116 11.4545 87.7628 13.2443 87.7628 15.5455C87.7628 17.875 86.6832 19.7216 84.581 19.7216C82.5639 19.7216 81.456 18.017 81.456 15.5455ZM92.6918 25.0909C94.2045 25.0909 95.2699 24.2884 95.902 22.5909L100.547 10.1193L98.7145 10.0909L95.7031 18.7841H95.5895L92.5781 10.0909H90.7599L94.794 21.0568L94.4815 21.9091C93.8707 23.571 93.1179 23.7273 91.8963 23.4148L91.4702 24.892C91.6406 24.9773 92.1236 25.0909 92.6918 25.0909Z" fill="#9CA3AF"/>
<g clip-path="url(#clip0_1_122)">
<path d="M147.599 78.4466V68.2466H144.073V64.8722H147.599V58.8902H151.359V64.8722H156.217V68.2466H151.359V78.2166C151.359 80.4406 152.299 81.3609 154.023 81.3609C154.728 81.3609 155.198 81.2842 155.747 81.0541L157.078 84.1985C156.217 84.582 155.355 84.7353 154.101 84.7353C149.792 84.7353 147.599 82.4346 147.599 78.4466ZM123.469 74.6887C123.469 69.1669 127.386 64.3354 133.184 64.3354C139.138 64.3354 142.898 68.4 142.898 74.6887C142.898 74.9955 142.82 75.379 142.82 75.379H127.073C127.308 79.5203 130.285 81.7444 133.419 81.7444C135.612 81.7444 137.806 80.9008 138.824 78.3699L142.115 79.7504C140.94 82.5113 138.041 85.0421 133.419 85.0421C127.543 85.0421 123.469 80.5173 123.469 74.6887ZM133.184 67.6331C130.442 67.6331 128.248 69.4737 127.465 72.3113H138.981C138.903 70.6241 137.414 67.6331 133.184 67.6331ZM105.215 81.6677H105.058V84.3519H101.455V55.976H105.215V64.9489L105.058 67.6331H105.215C106.39 65.8692 108.819 64.2587 112.031 64.2587C117.045 64.2587 121.51 68.7068 121.51 74.612C121.51 80.5173 117.123 84.9654 112.031 84.9654C108.819 85.0421 106.312 83.5083 105.215 81.6677ZM117.672 74.6887C117.672 70.3173 114.695 67.6331 111.326 67.6331C108.035 67.6331 104.98 70.2406 104.98 74.6887C104.98 79.1369 107.957 81.7444 111.326 81.7444C114.695 81.6677 117.672 79.0602 117.672 74.6887ZM79.9885 78.5233C79.9885 74.0752 84.0624 71.6978 88.6846 71.6978C91.3483 71.6978 93.3069 72.4647 94.0903 72.9248V72.388C94.0903 69.4737 91.6617 67.6331 88.9197 67.6331C86.8827 67.6331 84.8458 68.6301 84.1407 70.4707L80.6936 69.0135C81.3987 67.2496 83.749 64.2587 88.763 64.2587C93.6203 64.2587 97.6158 67.0963 97.6158 72.6181V84.3519H94.012V81.6677H93.8553C92.7585 83.2782 90.7216 85.0421 87.3528 85.0421C83.3573 85.0421 79.9885 82.588 79.9885 78.5233ZM94.0903 75.9925C94.0903 75.9925 92.5235 74.6887 89.3114 74.6887C85.3942 74.6887 83.8274 76.7594 83.8274 78.5233C83.8274 80.594 86.021 81.591 87.9796 81.591C90.9566 81.6677 94.0903 79.2135 94.0903 75.9925ZM62.988 64.9489L62.8313 67.6331H62.988C64.0065 65.8692 66.5918 64.2587 69.2555 64.2587C74.3478 64.2587 76.8548 67.6331 76.8548 72.4647V84.3519H73.0943V73.0015C73.0943 68.9369 71.0574 67.6331 68.1587 67.6331C64.9466 67.6331 62.9097 70.6241 62.9097 73.6151V84.3519H59.1492V55.976H62.9097L62.988 64.9489ZM40.2685 81.6677H40.1118L40.2685 84.3519V92.9414H36.508V64.9489H40.1118V67.6331H40.2685C41.4436 65.8692 43.8723 64.2587 47.0843 64.2587C52.0983 64.2587 56.5639 68.7068 56.5639 74.612C56.5639 80.5173 52.0983 85.0421 47.006 85.0421C43.8723 85.0421 41.3653 83.5083 40.2685 81.6677ZM52.7251 74.6887C52.7251 70.3173 49.748 67.6331 46.3792 67.6331C43.0888 67.6331 40.0334 70.2406 40.0334 74.6887C40.0334 79.1369 43.0105 81.7444 46.3792 81.7444C49.748 81.6677 52.7251 79.0602 52.7251 74.6887ZM28.8303 84.4286H32.5908V55.976H28.8303V84.4286ZM11.5165 55.976L0.548401 84.4286H4.7006L7.52096 76.6827H19.7425L22.5629 84.4286H26.6367L15.6687 55.976H11.5165ZM13.475 60.4241H13.6317L18.4107 73.3083H8.77445L13.475 60.4241Z" fill="#B4A6A2"/>
</g>
<path d="M602.114 84.5053C592.695 88.4166 582.497 90.3339 573.234 90.3339C559.455 90.3339 546.144 86.6526 535.323 80.4406C534.389 79.9038 533.689 80.9008 534.467 81.591C544.431 90.4105 557.665 95.779 572.377 95.779C582.808 95.779 594.952 92.4812 603.359 86.4226C604.683 85.4256 603.437 83.8917 602.114 84.5053Z" fill="#B4A6A2"/>
<path d="M596.82 81.0541C596.12 81.591 596.275 82.2812 597.054 82.2045C599.701 81.8978 605.772 81.2075 606.862 82.588C607.952 83.9684 605.695 89.4902 604.683 92.0211C604.371 92.788 605.072 93.0947 605.695 92.5579C610.21 88.8767 611.377 81.0541 610.365 79.9805C609.431 78.6767 601.569 77.7564 596.82 81.0541Z" fill="#B4A6A2"/>
<path d="M613.168 71.6211C610.599 70.1639 607.563 69.7805 604.76 69.8572L612.389 59.1203C613.09 58.2 613.479 57.5865 613.479 57.1263V54.3654C613.479 53.8286 613.09 53.5985 612.623 53.5985H597.91C597.443 53.5985 597.132 53.982 597.132 54.3654V57.5865C597.132 58.1233 597.521 58.3534 597.988 58.3534H605.695L596.82 70.7775C596.275 71.5444 596.275 72.4647 596.275 73.0015V76.2993C596.275 76.8361 596.82 77.2963 597.287 76.9895C602.269 74.382 608.263 74.612 612.778 76.9895C613.323 77.2963 613.868 76.6827 613.868 76.2993V72.9248C613.868 72.388 613.713 72.0045 613.168 71.6211Z" fill="#B4A6A2"/>
<path d="M539.216 77.7564H543.731C544.275 77.7564 544.587 77.3729 544.587 76.9895V65.0256C544.587 62.418 544.431 58.8135 547.701 58.8135C550.892 58.8135 550.425 62.4947 550.425 65.0256V76.9895C550.425 77.4496 550.814 77.7564 551.204 77.7564H555.719C556.263 77.7564 556.575 77.3729 556.575 76.9895V65.0256C556.575 63.7218 556.497 61.8045 557.042 60.6541C557.509 59.5038 558.599 58.8135 559.689 58.8135C561.012 58.8135 562.024 59.2737 562.257 60.7308C562.491 61.6511 562.413 64.0286 562.413 64.9489V76.9128C562.413 77.3729 562.802 77.6797 563.192 77.6797H567.707C568.251 77.6797 568.563 77.2962 568.563 76.9128V62.6481C568.563 60.194 568.874 57.4331 567.395 55.5925C566.15 53.9053 564.048 53.0616 562.257 53.0616C559.689 53.0616 557.198 54.4421 556.108 57.2797C554.862 54.4421 553.15 53.0616 550.347 53.0616C547.623 53.0616 545.599 54.4421 544.509 57.2797H544.431V54.3654C544.431 53.9053 544.042 53.6752 543.653 53.5985H539.527C538.982 53.5985 538.671 53.9819 538.671 54.3654V76.9128C538.437 77.3729 538.748 77.6797 539.216 77.7564Z" fill="#B4A6A2"/>
<path d="M626.09 53.1383C619.629 53.1383 616.048 58.6601 616.048 65.6391C616.048 72.618 619.629 78.2165 626.09 78.2165C632.317 78.2165 636.287 72.6947 636.287 65.8691C636.365 58.8135 632.784 53.1383 626.09 53.1383ZM626.09 73.5383C622.587 73.5383 622.587 67.633 622.587 64.8721C622.587 62.1112 622.82 57.7398 626.09 57.7398C627.569 57.7398 628.503 58.3533 628.97 59.9639C629.515 61.7278 629.593 64.0285 629.593 65.9458C629.748 68.8601 629.593 73.5383 626.09 73.5383Z" fill="#B4A6A2"/>
<path d="M651.623 53.1383C648.509 53.1383 646.796 54.6721 645.551 57.7398H645.473V54.2887C645.395 53.9052 645.006 53.6751 644.695 53.6751H640.569C640.102 53.6751 639.79 54.0586 639.713 54.3654V76.9127C639.713 77.3729 640.102 77.6797 640.491 77.6797H644.928C645.473 77.6797 645.784 77.2962 645.784 76.9127V64.7954C645.784 63.2616 645.862 61.8812 646.485 60.5007C647.03 59.427 648.042 58.7368 649.054 58.7368C652.168 58.7368 651.856 62.3413 651.856 64.7954V77.0661C651.934 77.4496 652.245 77.7563 652.635 77.7563H657.15C657.617 77.7563 657.928 77.4496 658.006 77.0661V62.8782C658.006 60.6541 658.006 57.6631 656.838 55.8992C655.593 53.8285 653.647 53.1383 651.623 53.1383Z" fill="#B4A6A2"/>
<path d="M585.533 62.4947C582.964 62.8015 579.617 63.0316 577.126 64.0286C574.323 65.2556 572.377 67.6331 572.377 71.2376C572.377 75.8391 575.257 78.0632 579.072 78.0632C582.263 78.0632 583.976 77.3729 586.467 74.8421C587.245 75.9925 587.557 76.5293 589.036 77.7564C589.425 77.9098 589.737 77.9098 590.126 77.6797C590.982 76.9128 592.695 75.5323 593.551 74.7654C593.94 74.4586 593.862 73.9985 593.551 73.615C592.772 72.4647 591.916 71.621 591.916 69.5504V62.7248C591.916 59.8105 592.15 57.1263 589.97 55.1323C588.335 53.5218 585.377 52.9083 583.198 52.9083C578.916 52.9083 574.245 54.4421 573.234 59.5804C573.156 60.1173 573.545 60.4241 573.856 60.5007L578.06 61.0376C578.527 61.0376 578.76 60.5774 578.838 60.2707C579.228 58.5068 580.707 57.6632 582.419 57.6632C583.353 57.6632 584.365 58.0466 584.988 58.8135C585.611 59.7338 585.533 60.9609 585.533 62.0346V62.4947ZM584.599 71.621C583.898 72.8481 582.808 73.615 581.485 73.615C579.772 73.615 578.76 72.3113 578.76 70.394C578.76 66.6361 582.186 65.9459 585.455 65.9459V66.8662C585.533 68.7068 585.533 70.1639 584.599 71.621Z" fill="#B4A6A2"/>
<path d="M534.934 73.615C534.156 72.4647 533.299 71.621 533.299 69.5504V62.7248C533.299 59.8105 533.533 57.1263 531.353 55.1323C529.641 53.5218 526.76 52.9083 524.581 52.9083C520.299 52.9083 515.629 54.4421 514.617 59.5804C514.539 60.1173 514.928 60.4241 515.24 60.5007L519.599 60.9609C520.066 60.9609 520.299 60.5007 520.377 60.194C520.766 58.4301 522.245 57.5865 524.036 57.5865C524.97 57.5865 525.982 57.9699 526.605 58.7368C527.228 59.6571 527.15 60.8842 527.15 61.9579V62.4947C524.503 62.8015 521.156 63.0316 518.665 64.0286C515.862 65.2556 513.916 67.6331 513.916 71.2376C513.916 75.8391 516.796 78.0632 520.611 78.0632C523.802 78.0632 525.515 77.3729 528.006 74.8421C528.784 75.9925 529.096 76.5293 530.575 77.7564C530.964 77.9098 531.275 77.9098 531.665 77.6797C532.521 76.9128 534.234 75.5323 535.09 74.7654C535.323 74.4586 535.245 73.9985 534.934 73.615ZM526.216 71.621C525.515 72.8481 524.425 73.615 523.102 73.615C521.389 73.615 520.455 72.3113 520.455 70.394C520.455 66.6361 523.88 65.9459 527.15 65.9459V66.8662C526.994 68.7068 527.072 70.1639 526.216 71.621Z" fill="#B4A6A2"/>
<path d="M799.78 65.7925H781.448V71.0842H794.453C793.826 78.5233 787.48 81.7444 781.448 81.7444C773.77 81.7444 767.111 75.8391 767.111 67.5564C767.189 59.5038 773.535 53.3684 781.526 53.3684C787.715 53.3684 791.319 57.203 791.319 57.203L795.158 53.3684C795.158 53.3684 790.3 48.0767 781.369 48.0767C769.931 48 761.235 57.3564 761.235 67.4797C761.235 77.3729 769.461 87.0361 781.604 87.0361C792.259 87.0361 800.093 79.9038 800.093 69.3203C800.093 67.0962 799.78 65.7925 799.78 65.7925Z" fill="#B4A6A2"/>
<path d="M814.744 61.9579C807.223 61.9579 801.817 67.7098 801.817 74.3819C801.817 81.2075 807.066 87.0361 814.822 87.0361C821.873 87.0361 827.592 81.7443 827.592 74.5353C827.592 66.1759 820.933 61.9579 814.744 61.9579ZM814.822 66.8662C818.504 66.8662 822.029 69.7804 822.029 74.4586C822.029 79.0601 818.582 82.0511 814.822 82.0511C810.748 82.0511 807.536 78.8301 807.536 74.3819C807.458 70.0872 810.67 66.8662 814.822 66.8662Z" fill="#B4A6A2"/>
<path d="M842.79 61.9579C835.269 61.9579 829.864 67.7098 829.864 74.3819C829.864 81.2075 835.113 87.0361 842.869 87.0361C849.92 87.0361 855.639 81.7443 855.639 74.5353C855.639 66.1759 848.98 61.9579 842.79 61.9579ZM842.869 66.8662C846.551 66.8662 850.076 69.7804 850.076 74.4586C850.076 79.0601 846.629 82.0511 842.869 82.0511C838.795 82.0511 835.583 78.8301 835.583 74.3819C835.504 70.0872 838.717 66.8662 842.869 66.8662Z" fill="#B4A6A2"/>
<path d="M870.289 61.9579C863.395 61.9579 857.989 67.8631 857.989 74.5353C857.989 82.0511 864.256 87.1128 870.211 87.1128C873.893 87.1128 875.773 85.6556 877.261 84.0451V86.4992C877.261 90.794 874.598 93.4015 870.524 93.4015C866.607 93.4015 864.648 90.5639 863.943 88.9534L858.929 90.9474C860.653 94.5519 864.178 98.3098 870.446 98.3098C877.261 98.3098 882.51 94.0917 882.51 85.1955V62.7248H877.105V64.8722C875.538 63.1083 873.266 61.9579 870.289 61.9579ZM870.759 66.8662C874.128 66.8662 877.575 69.7037 877.575 74.5353C877.575 79.4436 874.128 82.1278 870.681 82.1278C866.998 82.1278 863.551 79.2135 863.551 74.5353C863.63 69.7037 867.155 66.8662 870.759 66.8662Z" fill="#B4A6A2"/>
<path d="M906.484 61.8812C899.981 61.8812 894.497 66.9428 894.497 74.3819C894.497 82.2812 900.608 86.9594 907.11 86.9594C912.516 86.9594 915.885 84.0451 917.843 81.4376L913.378 78.5233C912.203 80.2872 910.322 81.9744 907.11 81.9744C903.506 81.9744 901.861 80.0571 900.843 78.1398L918 71.1609L917.138 69.0902C915.415 65.2556 911.576 61.8812 906.484 61.8812ZM906.64 66.7127C908.991 66.7127 910.636 67.9398 911.419 69.397L899.903 74.0751C899.433 70.4706 902.958 66.7127 906.64 66.7127Z" fill="#B4A6A2"/>
<path d="M886.271 86.2692H891.912V49.3038H886.271V86.2692Z" fill="#B4A6A2"/>
<path d="M1037.01 92.3278C1034.66 92.7113 1032.31 92.8646 1029.81 93.1714L1022.29 71.5443V94.0917C1019.94 94.3218 1017.82 94.6285 1015.55 95.012V53.6752H1021.82L1030.36 77.1428V53.6752H1037.01V92.3278ZM1050.02 68.8601C1052.6 68.8601 1056.52 68.7067 1058.87 68.7067V75.1489C1055.97 75.1489 1052.53 75.1489 1050.02 75.3022V84.8887C1053.86 84.6586 1057.78 84.3519 1061.69 84.1985V90.4105L1043.44 91.791V53.6752H1061.69V60.1173H1050.02C1050.02 60.194 1050.02 68.8601 1050.02 68.8601ZM1086.14 60.194H1079.32V89.8737C1077.13 89.8737 1074.85 89.8737 1072.74 89.9504V60.194H1065.92V53.6752H1086.21C1086.14 53.6752 1086.14 60.194 1086.14 60.194ZM1096.87 68.4H1105.88V74.8421H1096.87V89.4902H1090.37V53.6752H1108.78V60.1173H1096.87C1096.87 60.194 1096.87 68.4 1096.87 68.4ZM1119.51 83.815C1123.27 83.8917 1127.03 84.1985 1130.71 84.3519V90.7173C1124.84 90.3338 1118.96 90.027 1112.93 89.8737V53.6752H1119.51V83.815ZM1136.28 91.1774C1138.39 91.3308 1140.58 91.4075 1142.78 91.6376V53.6752H1136.28V91.1774ZM1171.61 53.6752L1163.23 73.3083L1171.61 94.9353C1169.1 94.6286 1166.67 94.1684 1164.17 93.7849L1159.47 81.821L1154.61 92.7879C1152.26 92.4045 1149.91 92.2511 1147.56 91.9443L1156.02 73.0782L1148.34 53.6752H1155.39L1159.7 64.4887L1164.32 53.6752H1171.61Z" fill="#B4A6A2"/>
<g clip-path="url(#clip1_1_122)">
<path d="M287.688 59.8872C287.688 59.6571 287.453 59.5804 287.296 59.5037C287.139 59.5037 283.77 59.2737 283.77 59.2737C283.77 59.2737 281.42 56.9729 281.185 56.7428C280.95 56.5128 280.402 56.5895 280.245 56.5895C280.245 56.5895 279.697 56.7428 278.913 56.9729C278.13 54.7489 276.798 52.7549 274.369 52.7549H274.134C273.429 51.8346 272.567 51.4511 271.862 51.4511C266.222 51.4511 263.558 58.3534 262.696 61.8812C260.502 62.5714 258.936 63.0316 258.779 63.0316C257.604 63.415 257.525 63.415 257.369 64.5654C257.212 65.5624 254 89.8737 254 89.8737L278.992 94.4752L292.545 91.6376C292.467 91.5609 287.766 60.1173 287.688 59.8872ZM277.581 57.4331C276.955 57.6631 276.25 57.8165 275.466 58.0466V57.5864C275.466 56.206 275.231 55.1323 274.918 54.212C276.171 54.5188 277.033 55.8992 277.581 57.4331ZM273.429 54.5955C273.743 55.4391 273.978 56.6661 273.978 58.2767V58.5067C272.646 58.8902 271.079 59.3504 269.59 59.8105C270.452 56.7428 272.019 55.1323 273.429 54.5955ZM271.706 53.0616C271.941 53.0616 272.176 53.1383 272.411 53.2917C270.609 54.1353 268.65 56.206 267.867 60.424C266.692 60.8075 265.516 61.1143 264.42 61.4977C265.438 58.2767 267.71 53.0616 271.706 53.0616Z" fill="#B4A6A2"/>
<path d="M287.374 59.5804C287.218 59.5804 283.849 59.3503 283.849 59.3503C283.849 59.3503 281.499 57.0496 281.264 56.8195C281.185 56.7428 281.028 56.6661 280.872 56.6661L278.992 94.4752L292.545 91.6376C292.545 91.6376 287.766 60.194 287.766 59.9639C287.688 59.6571 287.531 59.5804 287.374 59.5804Z" fill="#B4A6A2"/>
<path d="M274.369 66.8662L272.724 71.6978C272.724 71.6978 271.236 70.9309 269.434 70.9309C266.77 70.9309 266.692 72.5414 266.692 72.9248C266.692 75.1489 272.567 75.9925 272.567 81.2075C272.567 85.2722 269.904 87.9564 266.378 87.9564C262.069 87.9564 259.876 85.3489 259.876 85.3489L261.051 81.6677C261.051 81.6677 263.323 83.585 265.203 83.585C266.457 83.585 266.927 82.588 266.927 81.8978C266.927 78.9835 262.069 78.8301 262.069 74.0752C262.069 70.0872 265.046 66.176 270.922 66.176C273.272 66.2527 274.369 66.8662 274.369 66.8662Z" fill="white"/>
<path d="M308.292 75.9925C306.96 75.3023 306.255 74.6887 306.255 73.8451C306.255 72.7714 307.195 72.0812 308.762 72.0812C310.486 72.0812 312.052 72.7714 312.052 72.7714L313.306 69.0902C313.306 69.0902 312.131 68.2466 308.84 68.2466C304.218 68.2466 300.928 70.8542 300.928 74.5354C300.928 76.606 302.416 78.2166 304.453 79.3669C306.098 80.2872 306.647 80.9008 306.647 81.8978C306.647 82.8948 305.863 83.6617 304.296 83.6617C302.024 83.6617 299.909 82.5113 299.909 82.5113L298.656 86.1158C298.656 86.1158 300.614 87.4196 303.905 87.4196C308.684 87.4196 312.131 85.1188 312.131 80.9775C312.131 78.7534 310.407 77.1429 308.292 75.9925ZM327.329 68.2466C324.979 68.2466 323.099 69.3203 321.689 71.0075H321.61L323.647 60.5775H318.32L313.149 87.1128H318.477L320.278 77.9865C320.984 74.5354 322.785 72.388 324.509 72.388C325.684 72.388 326.154 73.1549 326.154 74.3053C326.154 74.9955 326.076 75.9158 325.919 76.606L323.882 87.0361H329.21L331.325 76.2993C331.56 75.1489 331.717 73.7684 331.717 72.9248C331.638 70.0105 330.071 68.2466 327.329 68.2466ZM343.703 68.2466C337.279 68.2466 333.048 73.9218 333.048 80.2105C333.048 84.2752 335.634 87.4963 340.413 87.4963C346.68 87.4963 350.911 81.9745 350.911 75.5323C350.911 71.7745 348.717 68.2466 343.703 68.2466ZM341.118 83.4316C339.316 83.4316 338.532 81.8978 338.532 80.0572C338.532 77.0662 340.099 72.1579 342.998 72.1579C344.878 72.1579 345.505 73.7684 345.505 75.3023C345.505 78.5233 343.938 83.4316 341.118 83.4316ZM364.542 68.2466C360.939 68.2466 358.902 71.3143 358.902 71.3143H358.823L359.137 68.5534H354.436C354.201 70.4707 353.809 73.3083 353.339 75.4557L349.657 94.5519H354.985L356.473 86.806H356.551C356.551 86.806 357.648 87.4963 359.685 87.4963C365.953 87.4963 370.026 81.2075 370.026 74.9188C370.026 71.3143 368.46 68.2466 364.542 68.2466ZM359.45 83.5083C358.04 83.5083 357.257 82.7414 357.257 82.7414L358.118 77.8331C358.745 74.612 360.469 72.388 362.349 72.388C363.994 72.388 364.464 73.8451 364.464 75.2256C364.464 78.7534 362.427 83.5083 359.45 83.5083ZM377.626 60.7308C375.902 60.7308 374.57 62.0346 374.57 63.7218C374.57 65.2557 375.589 66.3293 377.077 66.3293H377.156C378.801 66.3293 380.211 65.2557 380.289 63.3384C380.289 61.8045 379.271 60.7308 377.626 60.7308ZM370.183 87.0361H375.511L379.114 68.5534H373.787L370.183 87.0361ZM392.668 68.6301H388.986L389.142 67.7865C389.456 66.0226 390.552 64.412 392.276 64.412C393.216 64.412 394 64.6421 394 64.6421L395.018 60.5775C395.018 60.5775 394.078 60.1173 392.119 60.1173C390.239 60.1173 388.359 60.6542 386.87 61.8812C385.068 63.4151 384.207 65.5624 383.815 67.7865L383.658 68.6301H381.151L380.368 72.5414H382.875L380.054 87.1128H385.382L388.202 72.5414H391.884L392.668 68.6301ZM405.438 68.6301C405.438 68.6301 402.069 76.8361 400.58 81.2842H400.502C400.424 79.8271 399.17 68.6301 399.17 68.6301H393.529L396.742 85.579C396.82 85.9624 396.742 86.1925 396.663 86.4226C396.036 87.5729 395.018 88.7233 393.764 89.5669C392.746 90.2572 391.649 90.7173 390.787 91.0241L392.276 95.4722C393.373 95.2421 395.566 94.3985 397.525 92.6346C399.954 90.4105 402.226 86.9594 404.498 82.2812L411 68.6301H405.438Z" fill="#B4A6A2"/>
</g>
<defs>
<clipPath id="clip0_1_122">
<rect width="157" height="51" fill="white" transform="translate(0 48)"/>
</clipPath>
<clipPath id="clip1_1_122">
<rect width="157" height="51" fill="white" transform="translate(254 48)"/>
</clipPath>
</defs>
</svg>
